<svg width="113" height="128" fill="none" xmlns="http://www.w3.org/2000/svg"><g filter="url(#a)"><path d="m87.36 12.6 7.41 3.92-20.35 38.82-7.42-3.9L87.36 12.6Z" fill="#EEBA00"/><path d="m87.36 12.6 7.41 3.92-20.35 38.82-7.42-3.9L87.36 12.6Z" fill="url(#b)" fill-opacity=".5"/><path d="M87.36 12.6c2.09-.94 6.49-1.48 7.4 3.99l-7.4-3.99Z" fill="#EEBA00"/><path d="M87.36 12.6c2.09-.94 6.49-1.48 7.4 3.99l-7.4-3.99Z" fill="url(#c)" fill-opacity=".5"/></g><g filter="url(#d)"><mask id="e" style="mask-type:luminance" maskUnits="userSpaceOnUse" x="0" y="12" width="112" height="112"><path d="M0 12h112v112H0V12Z" fill="#fff"/></mask><g mask="url(#e)" fill="#FFCC4D"><path d="M82.53 73.9c0 4.88-11.88 8.84-26.53 8.84s-26.53-3.96-26.53-8.85c0-4.88 11.88-8.84 26.53-8.84s26.53 3.96 26.53 8.84Z"/><path d="M53.59 82.74h-21.7s3.98 19.16 6.92 28.74c2.95 9.59 13.58 9.57 15.99 9.57 4.82 0 13.04.02 15.98-9.57 2.93-9.59 9.34-28.74 9.34-28.74H53.59Z"/></g><mask id="f" style="mask-type:luminance" maskUnits="userSpaceOnUse" x="31" y="82" width="50" height="40"><path d="M53.59 82.74h-21.7s3.98 19.16 6.92 28.74c2.95 9.59 13.57 9.57 15.98 9.57 4.83 0 13.05.02 15.99-9.57 2.93-9.59 9.34-28.74 9.34-28.74H53.59Z" fill="#fff"/></mask><g mask="url(#f)"><path d="M80.12 87.16c0 4.88-8.14 10.31-24.12 10.31s-24.11-5.43-24.11-10.31c0-4.89 8.13-8.84 24.1-8.84 16 0 24.13 3.95 24.13 8.84Z" fill="#FFAC33"/></g></g><g filter="url(#g)" fill="#8CE099"><path d="M86.58 65.5c0-7.1-5.75-12.84-12.83-12.84-7.1 0-41.82 14.16-41.82 21.25 0 7.08 23.83 6.86 40.53 4.04 6.99-1.18 14.12-5.37 14.12-12.46Z"/><path d="M81.48 47.27c-3-7.17-11.4-10.63-18.8-7.73L32.6 51.35a14.01 14.01 0 0 0-9.02 12.98c0 7.73 6.46 14 14.43 14C56.1 78.33 74.6 66 74.6 66c6.9-4.3 9.85-11.56 6.87-18.73Z"/><path d="M75.18 34.1c-2.3-5.26-8.79-7.8-14.48-5.67L37.49 37.1v.01c-4.08 1.52-6.95 5.2-6.95 9.52 0 5.67 4.98 10.27 11.12 10.27 13.97 0 28.22-9.04 28.22-9.04 5.34-3.16 7.6-8.49 5.3-13.75Z"/><path d="M63.94 29.45s1.75-5.25-5.25-5.25c-10.5 0-17 2.5-17 2.5a6.5 6.5 0 0 0 2.43 12.52c8.16 0 16.5-5.72 16.5-5.72 3.1-2 3.32-4.05 3.32-4.05Z"/><path d="M53 15.36c5.25 7 12.25 3.47 14 8.72 1.66 4.98-3.5 7-3.5 7h-14S44.25 20.6 53 15.35Z"/></g><mask id="h" style="mask-type:luminance" maskUnits="userSpaceOnUse" x="0" y="12" width="112" height="112"><path d="M0 12h112v112H0V12Z" fill="#fff"/></mask><g mask="url(#h)"><path d="M29.47 73.9v8.84c0 4.88 11.88 8.84 26.53 8.84s26.53-3.96 26.53-8.84v-8.85H29.47Z" fill="#FFCC4D"/><path d="M80.12 75.37c0 4.07-10.8 7.37-24.12 7.37s-24.11-3.3-24.11-7.37S42.68 68 55.99 68c13.33 0 24.13 3.3 24.13 7.37Z" fill="#F4900C"/><path d="M86.58 65.5c0-7.1-5.75-12.84-12.83-12.84-7.1 0-41.82 14.16-41.82 21.25 0 7.08 23.83 6.86 40.53 4.04 6.99-1.18 14.12-5.37 14.12-12.46Z" fill="#8CE099"/><path d="M81.48 47.27c-3-7.17-11.4-10.63-18.8-7.73L32.6 51.35a14.01 14.01 0 0 0-9.02 12.98c0 7.73 6.46 14 14.43 14C56.1 78.33 74.6 66 74.6 66c6.9-4.3 9.85-11.56 6.87-18.73Z" fill="#8CE099"/><path d="M75.18 34.1c-2.3-5.26-8.79-7.8-14.48-5.67L37.49 37.1v.01c-4.08 1.52-6.95 5.2-6.95 9.52 0 5.67 4.98 10.27 11.12 10.27 13.97 0 28.22-9.04 28.22-9.04 5.34-3.16 7.6-8.49 5.3-13.75Z" fill="#8CE099"/><path d="M63.94 29.45s1.75-5.25-5.25-5.25c-10.5 0-17 2.5-17 2.5a6.5 6.5 0 0 0 2.43 12.52c8.16 0 16.5-5.72 16.5-5.72 3.1-2 3.32-4.05 3.32-4.05Z" fill="#8CE099"/><path d="M53 15.36c5.25 7 12.25 3.47 14 8.72 1.66 4.98-3.5 7-3.5 7h-14S44.25 20.6 53 15.35Z" fill="#8CE099"/></g><mask id="i" style="mask-type:luminance" maskUnits="userSpaceOnUse" x="30" y="27" width="47" height="30"><path d="M60.7 28.43 37.49 37.1v.01c-4.08 1.52-6.95 5.21-6.95 9.52 0 5.67 4.98 10.27 11.12 10.27 13.97 0 28.22-9.04 28.22-9.04 5.34-3.16 7.6-8.49 5.3-13.75-1.75-4-5.92-6.42-10.32-6.42-1.39 0-2.8.24-4.16.75Z" fill="#fff"/></mask><g mask="url(#i)"><path d="M29.97 51.43c10.07 0 28.6-3.31 48.63-17.19 6.2-4.3 10.8 2.58 5.9 7.25C79.57 46.15 42.97 63.35 30.45 61c-12.53-2.33-.5-9.58-.5-9.58Z" fill="#6FCC7D"/></g><mask id="j" style="mask-type:luminance" maskUnits="userSpaceOnUse" x="23" y="38" width="60" height="41"><path d="m62.69 39.54-30.1 11.81a14 14 0 0 0-9.01 12.98c0 7.73 6.46 14 14.43 14C56.1 78.33 74.6 66 74.6 66c6.9-4.3 9.85-11.56 6.86-18.73A14.44 14.44 0 0 0 68.1 38.5c-1.8 0-3.63.33-5.4 1.03Z" fill="#fff"/></mask><g mask="url(#j)"><path d="M22.97 69c4.54 2.08 16.08 1.71 23.45-.37 7.37-2.1 33.16-10.44 36.97-19.65 3.8-9.21 8.35-1.72 7.24 5.28-1.1 7-32.9 33.77-48.01 30.58-15.1-3.2-24.57-2.34-25.55-7.62-.98-5.28 5.9-8.23 5.9-8.23Z" fill="#6FCC7D"/></g><mask id="k" style="mask-type:luminance" maskUnits="userSpaceOnUse" x="37" y="23" width="31" height="17"><path d="M41.68 26.7a6.5 6.5 0 0 0 2.44 12.52c8.16 0 16.5-5.72 16.5-5.72 3.1-2 6.31-5.53 6.31-5.53s2.2-4.9-4.79-4.9c-10.5 0-20.46 3.62-20.46 3.62Z" fill="#fff"/></mask><g mask="url(#k)"><path d="M36.84 34.24c7.13.74 30.46-6.76 30.95-12.9.5-6.13 4.79 5.16 3.32 7.13-1.48 1.96-29.35 16.82-39.43 10.31-10.07-6.5 5.16-4.54 5.16-4.54Z" fill="#6FCC7D"/></g><defs><filter id="a" x="63" y="8" width="35.77" height="51.34" filterUnits="userSpaceOnUse" color-interpolation-filters="sRGB"><feFlood flood-opacity="0" result="BackgroundImageFix"/><feColorMatrix in="SourceAlpha" values="0 0 0 0 0 0 0 0 0 0 0 0 0 0 0 0 0 0 127 0" result="hardAlpha"/><feOffset/><feGaussianBlur stdDeviation="2"/><feComposite in2="hardAlpha" operator="out"/><feColorMatrix values="0 0 0 0 0.933333 0 0 0 0 0.729412 0 0 0 0 0 0 0 0 0.25 0"/><feBlend in2="BackgroundImageFix" result="effect1_dropShadow_3_93"/><feBlend in="SourceGraphic" in2="effect1_dropShadow_3_93" result="shape"/></filter><filter id="d" x="25.47" y="63.05" width="61.05" height="64" filterUnits="userSpaceOnUse" color-interpolation-filters="sRGB"><feFlood flood-opacity="0" result="BackgroundImageFix"/><feColorMatrix in="SourceAlpha" values="0 0 0 0 0 0 0 0 0 0 0 0 0 0 0 0 0 0 127 0" result="hardAlpha"/><feOffset dy="2"/><feGaussianBlur stdDeviation="2"/><feComposite in2="hardAlpha" operator="out"/><feColorMatrix values="0 0 0 0 1 0 0 0 0 0.937083 0 0 0 0 0.370833 0 0 0 0.58 0"/><feBlend in2="BackgroundImageFix" result="effect1_dropShadow_3_93"/><feBlend in="SourceGraphic" in2="effect1_dropShadow_3_93" result="shape"/></filter><filter id="g" x="19.58" y="10.36" width="71" height="72.43" filterUnits="userSpaceOnUse" color-interpolation-filters="sRGB"><feFlood flood-opacity="0" result="BackgroundImageFix"/><feColorMatrix in="SourceAlpha" values="0 0 0 0 0 0 0 0 0 0 0 0 0 0 0 0 0 0 127 0" result="hardAlpha"/><feOffset dy="-1"/><feGaussianBlur stdDeviation="2"/><feComposite in2="hardAlpha" operator="out"/><feColorMatrix values="0 0 0 0 0.54902 0 0 0 0 0.878431 0 0 0 0 0.6 0 0 0 0.74 0"/><feBlend in2="BackgroundImageFix" result="effect1_dropShadow_3_93"/><feBlend in="SourceGraphic" in2="effect1_dropShadow_3_93" result="shape"/></filter><linearGradient id="b" x1="99.03" y1="16.3" x2="76.83" y2="28.26" gradientUnits="userSpaceOnUse"><stop stop-color="#fff"/><stop offset="1" stop-color="#fff" stop-opacity="0"/></linearGradient><linearGradient id="c" x1="99.03" y1="16.3" x2="76.83" y2="28.26" gradientUnits="userSpaceOnUse"><stop stop-color="#fff"/><stop offset="1" stop-color="#fff" stop-opacity="0"/></linearGradient></defs></svg>